#!OML:ASF F:\VICON\USERDATA\INSTALL\rory3\rory3.ASF
:FULLY-SPECIFIED
:DEGREES
53
root 0.26396208130431226 18.31305528331954 12.187417758009042 -2.7330397544031264 -1.7054335683889144 -5.791831499662943
lfemur -15.243664941116581 -4.018178755928039 -13.758216931884242
ltibia 50.528040931216864
lfoot -5.719191130088447 -4.682270352409517
ltoes -20.877888952694725
rfemur -11.25808258712815 5.852439232351889 31.66282126906099
rtibia 29.805366119669017
rfoot -6.58334753655973 -8.440486420283591
rtoes 9.396928374131106
lowerback 9.793747401895665 0.18057715107077893 3.588129419794777
upperback 0.08328787395168816 1.0197677816451598 2.546954039087694
thorax -6.908559756952549 0.4352633079977779 0.5524836224719933
lowerneck -16.770789476719266 -2.971431329701893 -1.7108439931620008
upperneck 21.855040739599858 -3.8513200612717844 1.1137746579780199
head 9.690307522572605 -1.8936618369228182 0.22852032586504298
lclavicle 2.9750964387247824e-16 5.427674614366012e-17
lhumerus -34.6706484121196 3.202235408038362 79.90544607979741
lradius 31.413299207259772
lwrist 8.331956801864143
lhand -29.19066614301492 19.014185782715305
lfingers 7.125020000000001
lthumb -2.370538016100841 49.421218267410815
rclavicle 3.0321009079205445e-16 5.807104417544777e-17
rhumerus -34.28460685195964 -22.040543884059158 -76.81389928024355
rradius 24.88485471909383
rwrist 6.1664069624070965
rhand -16.866797756199986 22.185771991893063
rfingers 7.125020000000001
rthumb 9.296362847789343 -7.198178149402822
54
root 0.3142895915751775 18.094903515685644 13.864927170460744 -2.9641174529405645 -2.848899774657462 -5.90143590766914
lfemur -15.347618578988966 -3.578754251878651 -13.823580091776051
ltibia 47.45425051231533
lfoot -7.330838749203987 -4.475775181944418
ltoes -20.73411867276499
rfemur -10.457975499090791 5.6629697972897155 32.40044418797596
rtibia 30.147181534497445
rfoot -6.194009156139729 -8.658538982304336
rtoes 8.984816428714247
lowerback 10.251662066488722 0.7260934796450634 3.855459877770084
upperback 0.015978863972816046 1.8069790757411037 2.3886226540421074
thorax -6.972636324866558 0.7815843646556594 -0.10054400786325446
lowerneck -16.804353861183337 -3.0348133907790866 -1.6480843755495576
upperneck 21.99025664756467 -3.980201608237323 1.145160882396389
head 9.745484350837916 -1.9299026069219263 0.21665538981419935
lclavicle 2.984829332187535e-16 5.495709759857026e-17
lhumerus -35.073747069998184 3.290437523567834 79.87441535063857
lradius 31.430069982578477
lwrist 9.90200237442431
lhand -29.37445866596385 18.065070261731726
lfingers 7.125020000000001
lthumb -2.530899942235276 48.47831492771689
rclavicle 3.0304601618745136e-16 5.792241206076525e-17
rhumerus -33.13470432056049 -20.624038181222485 -77.91144130838506
rradius 26.116042649251128
rwrist 4.863505884803605
rhand -17.021462894653023 21.101478887252675
rfingers 7.125020000000001
rthumb 9.225357688678022 -8.102590048472733
55
root 0.4558306514473028 17.73641254927489 17.26252348588055 -3.0853684863800073 -3.2577907273493927 -6.383847507937421
lfemur -15.654601162690675 -3.0244725169675926 -13.155550295243522
ltibia 44.46748037438225
lfoot -6.213723633479314 -4.326757662725941
ltoes -18.975711658713642
rfemur -9.310463348177695 5.003180161844538 33.739907916947445
rtibia 30.01864300637672
rfoot -5.711741920317198 -8.91036464148425
rtoes 8.211199652666012
lowerback 11.362916160568759 1.1489075265083746 4.44455787127185
upperback 0.0153352228644546 2.4414057006405123 2.3169018207042273
thorax -6.982816684784747 1.0411796623588208 -0.8180529901482767
lowerneck -16.960684133707833 -3.0813171390095597 -1.5688497016710636
upperneck 22.03567052765051 -4.0846748576080625 1.119240987971188
head 9.774244799195197 -1.9643643428400073 0.1907020502247485
lclavicle 2.9908284568323864e-16 5.536739687275357e-17
lhumerus -35.2852909004703 3.4072264866082036 79.8689783426223
lradius 31.406959641916284
lwrist 11.69896414869041
lhand -29.729079574094424 17.077131350746512
lfingers 7.125020000000001
lthumb -2.9202407037870817 47.2826173794173
rclavicle 3.025708110753884e-16 5.746873013617472e-17
rhumerus -31.85276164524391 -19.148095203525518 -78.72849953102182
rradius 27.440287396195583
rwrist 3.658510163511464
rhand -17.33124542263196 20.2529362579287
rfingers 7.125020000000001
rthumb 8.99543707466005 -8.948112426228235
56
root 0.603014398013144 17.489248295254306 19.3191441080418 -3.0905787151964 -4.040955521417149 -7.440508127146477
lfemur -16.67837212300757 -2.4146991348824978 -11.843865769733
ltibia 42.08707934139052
lfoot -5.306820703995356 -4.758587589615497
ltoes -18.9842617357264
rfemur -7.128601525755448 4.476905163172146 35.173802968873844
rtibia 29.002630432198355
rfoot -5.211426510887883 -9.26499289851478
rtoes 6.936023553062265
lowerback 12.131554643235734 1.5826655702046968 5.504872285469949
upperback 0.13390401696707224 2.9491953874503114 2.310746620227076
thorax -6.854563469778832 1.2315105544995317 -1.4562029816270419
lowerneck -17.119707891726257 -3.116254117505793 -1.5123099185396889
upperneck 21.95888539684382 -4.165278930831282 1.112185702592662
head 9.76426491456955 -1.9902461897884263 0.17286213983952198
lclavicle 2.989127517934673e-16 5.522834935324636e-17
lhumerus -35.18326339934423 3.7251769850912306 79.9616482806627
lradius 31.20333807866174
lwrist 13.003647625760511
lhand -30.02268411738246 16.614961190168213
lfingers 7.125020000000001
lthumb -3.2418107084283405 46.70328553200294
rclavicle 3.025013072489099e-16 5.732653878695235e-17
rhumerus -30.34801166338038 -17.64576998943475 -79.17563232212997
rradius 28.64516925266801
rwrist 2.6654235892577267
rhand -17.716618056561384 20.26256177528493
rfingers 7.125020000000001
rthumb 8.664632945801046 -9.155040731673921
